<?xml version="1.0" encoding="UTF-8" standalone="no"?>
<!-- Created with Inkscape (http://www.inkscape.org/) -->

<svg
   xmlns:dc="http://purl.org/dc/elements/1.1/"
   xmlns:cc="http://creativecommons.org/ns#"
   xmlns:rdf="http://www.w3.org/1999/02/22-rdf-syntax-ns#"
   xmlns:svg="http://www.w3.org/2000/svg"
   xmlns="http://www.w3.org/2000/svg"
   xmlns:sodipodi="http://sodipodi.sourceforge.net/DTD/sodipodi-0.dtd"
   xmlns:inkscape="http://www.inkscape.org/namespaces/inkscape"
   width="137.6564mm"
   height="95.028412mm"
   viewBox="0 0 487.75891 336.71485"
   id="svg2"
   version="1.1"
   inkscape:version="0.92.3 (2405546, 2018-03-11)"
   inkscape:export-filename="/home/johannes/research/general/teaching/monte-carlo/sources/energy_unimodal.png"
   inkscape:export-xdpi="299.85901"
   inkscape:export-ydpi="299.85901"
   sodipodi:docname="weighted_samples.svg">
  <sodipodi:namedview
     id="base"
     pagecolor="#ffffff"
     bordercolor="#666666"
     borderopacity="1.0"
     inkscape:pageopacity="0.0"
     inkscape:pageshadow="2"
     inkscape:zoom="1.4"
     inkscape:cx="185.07677"
     inkscape:cy="259.35827"
     inkscape:document-units="px"
     inkscape:current-layer="layer1"
     showgrid="false"
     fit-margin-top="1"
     fit-margin-left="1"
     fit-margin-right="1"
     fit-margin-bottom="1"
     inkscape:window-width="1863"
     inkscape:window-height="1025"
     inkscape:window-x="57"
     inkscape:window-y="27"
     inkscape:window-maximized="1" />
  <defs
     id="defs4">
    <marker
       inkscape:stockid="Arrow1Mend"
       orient="auto"
       refY="0"
       refX="0"
       id="marker4420"
       style="overflow:visible"
       inkscape:isstock="true">
      <path
         inkscape:connector-curvature="0"
         id="path4422"
         d="M 0,0 5,-5 -12.5,0 5,5 Z"
         style="fill:#000000;fill-opacity:1;fill-rule:evenodd;stroke:#000000;stroke-width:1.00000003pt;stroke-opacity:1"
         transform="matrix(-0.4,0,0,-0.4,-4,0)" />
    </marker>
    <marker
       inkscape:collect="always"
       inkscape:isstock="true"
       style="overflow:visible"
       id="Arrow1Mend"
       refX="0"
       refY="0"
       orient="auto"
       inkscape:stockid="Arrow1Mend">
      <path
         inkscape:connector-curvature="0"
         transform="matrix(-0.4,0,0,-0.4,-4,0)"
         style="fill:#000000;fill-opacity:1;fill-rule:evenodd;stroke:#000000;stroke-width:1.00000003pt;stroke-opacity:1"
         d="M 0,0 5,-5 -12.5,0 5,5 Z"
         id="path4153" />
    </marker>
  </defs>
  <metadata
     id="metadata7">
    <rdf:RDF>
      <cc:Work
         rdf:about="">
        <dc:format>image/svg+xml</dc:format>
        <dc:type
           rdf:resource="http://purl.org/dc/dcmitype/StillImage" />
        <dc:title></dc:title>
      </cc:Work>
    </rdf:RDF>
  </metadata>
  <g
     transform="translate(-141.69647,-182.59436)"
     id="layer1"
     inkscape:groupmode="layer"
     inkscape:label="Layer 1">
    <path
       sodipodi:nodetypes="cc"
       inkscape:connector-curvature="0"
       id="path4456"
       d="m 197.56097,484.19286 c 97.42909,-277.17719 213.9356,-335.78678 356.58385,0"
       style="fill:none;fill-rule:evenodd;stroke:#c10000;stroke-width:3.74999976;stroke-linecap:butt;stroke-linejoin:miter;stroke-miterlimit:4;stroke-dasharray:none;stroke-opacity:1" />
    <path
       inkscape:connector-curvature="0"
       id="path4136"
       d="M 152.85714,485.21935 V 192.04971"
       style="fill:none;fill-rule:evenodd;stroke:#000000;stroke-width:3;stroke-linecap:butt;stroke-linejoin:miter;stroke-miterlimit:4;stroke-dasharray:none;stroke-opacity:1;marker-end:url(#Arrow1Mend)"
       sodipodi:nodetypes="cc" />
    <path
       inkscape:connector-curvature="0"
       id="path4138"
       d="M 151.49131,484.27767 H 620"
       style="fill:none;fill-rule:evenodd;stroke:#000000;stroke-width:3;stroke-linecap:butt;stroke-linejoin:miter;stroke-miterlimit:4;stroke-dasharray:none;stroke-opacity:1;marker-end:url(#marker4420)"
       sodipodi:nodetypes="cc" />
    <text
       id="text880"
       y="256.10947"
       x="522.67853"
       style="font-style:normal;font-variant:normal;font-weight:normal;font-stretch:normal;font-size:45px;line-height:125%;font-family:serif;-inkscape-font-specification:'serif, Normal';font-variant-ligatures:normal;font-variant-caps:normal;font-variant-numeric:normal;font-feature-settings:normal;text-align:start;letter-spacing:0px;word-spacing:0px;writing-mode:lr-tb;text-anchor:start;fill:#000000;fill-opacity:1;stroke:none;stroke-width:0.93749994px;stroke-linecap:butt;stroke-linejoin:miter;stroke-opacity:1"
       xml:space="preserve"><tspan
         style="stroke-width:0.93749994px"
         y="295.92392"
         x="522.67853"
         id="tspan878"
         sodipodi:role="line" /></text>
    <g
       id="g1089"
       transform="translate(-158.28931,-53.4647)"
       style="fill:#c10000;fill-opacity:1">
      <path
         style="font-style:normal;font-variant:normal;font-weight:normal;font-stretch:normal;letter-spacing:normal;word-spacing:normal;text-anchor:start;fill:#c10000;fill-opacity:1;fill-rule:evenodd;stroke:#000000;stroke-width:0;stroke-linecap:butt;stroke-linejoin:miter;stroke-miterlimit:10.43299961;stroke-dasharray:none;stroke-dashoffset:0;stroke-opacity:1"
         inkscape:connector-curvature="0"
         d="m 550.08141,293.52705 h -0.85878 c -0.17176,0.89313 -0.30917,1.69008 -0.61146,2.50077 -0.17175,0.54962 -0.27481,0.8313 -2.26031,0.8313 h -2.74123 c 0.4397,-1.92367 1.50459,-3.56566 3.05039,-5.8191 1.60764,-2.43894 3.0023,-4.8023 3.0023,-7.50231 0,-4.76108 -4.60993,-8.58781 -10.40155,-8.58781 -5.88093,0 -10.42903,3.9023 -10.42903,8.58781 0,2.70001 1.39466,5.06337 3.00229,7.50231 1.50459,2.25344 2.59696,3.89543 3.05039,5.8191 h -2.74123 c -1.9855,0 -2.08855,-0.28168 -2.26031,-0.79695 -0.26794,-0.78321 -0.43969,-1.67634 -0.61145,-2.53512 h -0.85878 l 1.13359,5.55116 h 5.47559 c 0.75572,0 0.85191,0 0.85191,-0.72138 0,-2.39085 -1.05115,-5.40688 -1.8481,-7.59849 -0.72137,-1.9855 -1.67634,-4.69238 -1.67634,-7.25498 0,-5.47559 3.77177,-7.8046 6.88399,-7.8046 3.28398,0 6.91146,2.46642 6.91146,7.8046 0,2.5626 -0.92061,5.17329 -1.92366,7.97635 -0.50153,1.43589 -1.60077,4.52063 -1.60077,6.87712 0,0.72138 0.10305,0.72138 0.88626,0.72138 h 5.44124 z"
         id="path896" />
      <path
         style="font-style:normal;font-variant:normal;font-weight:normal;font-stretch:normal;letter-spacing:normal;word-spacing:normal;text-anchor:start;fill:#c10000;fill-opacity:1;fill-rule:evenodd;stroke:#000000;stroke-width:0;stroke-linecap:butt;stroke-linejoin:miter;stroke-miterlimit:10.43299961;stroke-dasharray:none;stroke-dashoffset:0;stroke-opacity:1"
         inkscape:connector-curvature="0"
         d="m 562.96312,307.28815 v -0.0137 -0.0206 -0.007 -0.0137 -0.007 l -0.007,-0.0137 v -0.007 l -0.007,-0.0137 -0.007,-0.0137 -0.007,-0.0137 -0.007,-0.0137 -0.0137,-0.0206 -0.007,-0.0137 -0.0137,-0.0206 -0.0137,-0.0206 -0.0206,-0.0206 -0.0137,-0.0206 -0.0206,-0.0275 -0.0137,-0.0137 -0.007,-0.0137 -0.0137,-0.0137 -0.0137,-0.0137 -0.0137,-0.0137 -0.0137,-0.0206 -0.0137,-0.0137 -0.0137,-0.0137 -0.0137,-0.0206 -0.0206,-0.0137 -0.0137,-0.0206 -0.0206,-0.0206 -0.0206,-0.0206 -0.0137,-0.0206 -0.0206,-0.0206 -0.0206,-0.0206 -0.0206,-0.0206 -0.0206,-0.0206 -0.0275,-0.0275 -0.0206,-0.0206 -0.0275,-0.0275 -0.0206,-0.0206 -0.0275,-0.0275 -0.0275,-0.0275 c -4.2733,-4.31451 -5.36567,-10.77941 -5.36567,-16.01454 0,-5.9565 1.29848,-11.91988 5.50307,-16.1863 0.4397,-0.41908 0.4397,-0.48779 0.4397,-0.59084 0,-0.24046 -0.12367,-0.33664 -0.32978,-0.33664 -0.34351,0 -3.42138,2.32214 -5.44123,6.66414 -1.75191,3.77176 -2.15726,7.57101 -2.15726,10.44964 0,2.67253 0.371,6.80154 2.25344,10.67636 2.04734,4.21146 5.00154,6.43055 5.34505,6.43055 0.20611,0 0.32978,-0.0962 0.32978,-0.34351 z"
         id="path898" />
      <path
         style="font-style:normal;font-variant:normal;font-weight:normal;font-stretch:normal;letter-spacing:normal;word-spacing:normal;text-anchor:start;fill:#c10000;fill-opacity:1;fill-rule:evenodd;stroke:#000000;stroke-width:0;stroke-linecap:butt;stroke-linejoin:miter;stroke-miterlimit:10.43299961;stroke-dasharray:none;stroke-dashoffset:0;stroke-opacity:1"
         inkscape:connector-curvature="0"
         d="m 576.34636,288.73849 0.0206,-0.0893 0.0206,-0.10305 0.0275,-0.10993 0.0343,-0.12366 0.0344,-0.13053 0.0412,-0.14428 0.0481,-0.15114 0.0481,-0.15115 0.055,-0.15802 0.0618,-0.16488 0.0618,-0.17176 0.0756,-0.16488 0.0756,-0.17176 0.0824,-0.17176 0.0893,-0.17175 0.0893,-0.17176 0.10305,-0.16488 0.10992,-0.16489 0.10993,-0.15802 0.12366,-0.15114 0.13054,-0.15115 0.1374,-0.1374 0.14428,-0.13054 0.15114,-0.12366 0.15802,-0.10992 0.16488,-0.0962 0.0893,-0.0481 0.0893,-0.0412 0.0893,-0.0344 0.0962,-0.0344 0.0962,-0.0343 0.0962,-0.0275 0.10306,-0.0206 0.10305,-0.0206 0.10306,-0.0137 0.10305,-0.0137 0.10992,-0.007 h 0.10993 c 0.17175,0 0.98931,0 1.71069,0.4397 -0.95497,0.17175 -1.64199,1.03053 -1.64199,1.84809 0,0.54275 0.37099,1.2023 1.29848,1.2023 0.74885,0 1.84809,-0.61146 1.84809,-1.9855 0,-1.78627 -2.01985,-2.25345 -3.18092,-2.25345 -1.9855,0 -3.1878,1.81375 -3.59314,2.59696 -0.85878,-2.25344 -2.70688,-2.59696 -3.69619,-2.59696 -3.56566,0 -5.51681,4.4107 -5.51681,5.26948 0,0.34352 0.34351,0.34352 0.41908,0.34352 0.26794,0 0.37787,-0.0756 0.4397,-0.37787 1.16107,-3.62749 3.42138,-4.48627 4.58245,-4.48627 0.65955,0 1.8481,0.30229 1.8481,2.28779 0,1.05802 -0.5771,3.35955 -1.8481,8.14811 -0.54275,2.12291 -1.73817,3.55879 -3.24962,3.55879 -0.20611,0 -0.98932,0 -1.71069,-0.44656 0.85878,-0.16489 1.6145,-0.8794 1.6145,-1.8481 0,-0.92061 -0.75572,-1.18855 -1.27099,-1.18855 -1.03054,0 -1.88932,0.88626 -1.88932,1.9855 0,1.56641 1.71756,2.25344 3.22215,2.25344 2.26718,0 3.49008,-2.39772 3.60001,-2.59695 0.40534,1.26412 1.64198,2.59695 3.68932,2.59695 3.5313,0 5.48245,-4.4107 5.48245,-5.26948 0,-0.34351 -0.30916,-0.34351 -0.41221,-0.34351 -0.30229,0 -0.37786,0.1374 -0.44657,0.37099 -1.12672,3.66184 -3.45573,4.48627 -4.5481,4.48627 -1.3397,0 -1.88932,-1.09237 -1.88932,-2.26031 0,-0.75573 0.20611,-1.50458 0.59084,-3.00917 z"
         id="path900" />
      <path
         style="font-style:normal;font-variant:normal;font-weight:normal;font-stretch:normal;letter-spacing:normal;word-spacing:normal;text-anchor:start;fill:#c10000;fill-opacity:1;fill-rule:evenodd;stroke:#000000;stroke-width:0;stroke-linecap:butt;stroke-linejoin:miter;stroke-miterlimit:10.43299961;stroke-dasharray:none;stroke-dashoffset:0;stroke-opacity:1"
         inkscape:connector-curvature="0"
         d="m 594.33266,290.52475 v -0.2542 -0.26794 l -0.007,-0.26794 -0.007,-0.28168 -0.0275,-0.5771 -0.0412,-0.60458 -0.0618,-0.63206 -0.0687,-0.65268 -0.0962,-0.66641 -0.10993,-0.6939 -0.1374,-0.70076 -0.15802,-0.70764 -0.17862,-0.72137 -0.21298,-0.72825 -0.24046,-0.73511 -0.26794,-0.73512 -0.14427,-0.36412 -0.15802,-0.36413 -0.16489,-0.36412 -0.17175,-0.36412 c -2.04733,-4.20459 -4.9878,-6.43055 -5.33131,-6.43055 -0.20611,0 -0.34351,0.13053 -0.34351,0.33664 0,0.10305 0,0.17176 0.63893,0.79008 3.36642,3.38016 5.31757,8.82826 5.31757,15.98706 0,5.84658 -1.26413,11.87178 -5.51681,16.1863 -0.43969,0.40534 -0.43969,0.48092 -0.43969,0.5771 0,0.20611 0.1374,0.34351 0.34351,0.34351 0.34351,0 3.41451,-2.32901 5.44123,-6.67101 1.73817,-3.75802 2.14352,-7.55727 2.14352,-10.4359 z"
         id="path902" />
    </g>
    <g
       id="g959"
       transform="matrix(1.5,0,0,1.5,66.400139,-135.47945)">
      <g
         id="g957"
         transform="matrix(0.45801639,0,0,-0.45801639,-80.152869,418.82196)"
         xml:space="preserve"
         stroke-miterlimit="10.433"
         font-style="normal"
         font-variant="normal"
         font-weight="normal"
         font-stretch="normal"
         font-size-adjust="none"
         letter-spacing="normal"
         word-spacing="normal"
         style="font-style:normal;font-variant:normal;font-weight:normal;font-stretch:normal;letter-spacing:normal;word-spacing:normal;text-anchor:start;fill:none;fill-opacity:1;fill-rule:evenodd;stroke:#000000;stroke-linecap:butt;stroke-linejoin:miter;stroke-miterlimit:10.43299961;stroke-dasharray:none;stroke-dashoffset:0;stroke-opacity:1"><path
           d="m 470.61,421.95 0.21,1.28 3.39,13.56 c 0.43,1.74 0.54,1.89 2.68,1.89 h 4.79 c 4.14,0 6.78,-1.34 6.78,-4.78 0,-1.95 -1,-6.23 -2.94,-8.03 -2.5,-2.23 -5.48,-2.64 -7.69,-2.64 h -7.01 l -0.21,-1.28 h 8.47 c 7.08,0 14,5.17 14,10.75 0,3.84 -3.28,7.53 -9.81,7.53 h -16.14 c -0.95,0 -1.5,0 -1.5,-0.95 0,-0.6 0.45,-0.6 1.45,-0.6 0.64,0 1.55,-0.04 2.14,-0.09 0.8,-0.11 1.1,-0.25 1.1,-0.8 0,-0.2 -0.05,-0.36 -0.21,-0.95 l -6.67,-26.75 c -0.5,-1.95 -0.59,-2.34 -4.53,-2.34 -0.84,0 -1.39,0 -1.39,-0.96 0,-0.59 0.59,-0.59 0.73,-0.59 1.41,0 4.94,0.16 6.33,0.16 1.05,0 2.14,-0.07 3.19,-0.07 1.11,0 2.2,-0.09 3.25,-0.09 0.34,0 0.98,0 0.98,1 0,0.55 -0.43,0.55 -1.39,0.55 -1.84,0 -3.23,0 -3.23,0.89 0,0.29 0.09,0.54 0.14,0.84 z"
           id="path949"
           inkscape:connector-curvature="0"
           style="fill:#000000;stroke-width:0" /><path
           d="m 511,394.25 v 0.02 0.03 0.01 0.02 0.01 l -0.01,0.02 v 0.01 l -0.01,0.02 -0.01,0.02 -0.01,0.02 -0.01,0.02 -0.02,0.03 -0.01,0.02 -0.02,0.03 -0.02,0.03 -0.03,0.03 -0.02,0.03 -0.03,0.04 -0.02,0.02 -0.01,0.02 -0.02,0.02 -0.02,0.02 -0.02,0.02 -0.02,0.03 -0.02,0.02 -0.02,0.02 -0.02,0.03 -0.03,0.02 -0.02,0.03 -0.03,0.03 -0.03,0.03 -0.02,0.03 -0.03,0.03 -0.03,0.03 -0.03,0.03 -0.03,0.03 -0.04,0.04 -0.03,0.03 -0.04,0.04 -0.03,0.03 -0.04,0.04 -0.04,0.04 c -6.22,6.28 -7.81,15.69 -7.81,23.31 0,8.67 1.89,17.35 8.01,23.56 0.64,0.61 0.64,0.71 0.64,0.86 0,0.35 -0.18,0.49 -0.48,0.49 -0.5,0 -4.98,-3.38 -7.92,-9.7 -2.55,-5.49 -3.14,-11.02 -3.14,-15.21 0,-3.89 0.54,-9.9 3.28,-15.54 2.98,-6.13 7.28,-9.36 7.78,-9.36 0.3,0 0.48,0.14 0.48,0.5 z"
           id="path951"
           inkscape:connector-curvature="0"
           style="fill:#000000;stroke-width:0" /><path
           d="m 530.48,421.25 0.03,0.13 0.03,0.15 0.04,0.16 0.05,0.18 0.05,0.19 0.06,0.21 0.07,0.22 0.07,0.22 0.08,0.23 0.09,0.24 0.09,0.25 0.11,0.24 0.11,0.25 0.12,0.25 0.13,0.25 0.13,0.25 0.15,0.24 0.16,0.24 0.16,0.23 0.18,0.22 0.19,0.22 0.2,0.2 0.21,0.19 0.22,0.18 0.23,0.16 0.24,0.14 0.13,0.07 0.13,0.06 0.13,0.05 0.14,0.05 0.14,0.05 0.14,0.04 0.15,0.03 0.15,0.03 0.15,0.02 0.15,0.02 0.16,0.01 h 0.16 c 0.25,0 1.44,0 2.49,-0.64 -1.39,-0.25 -2.39,-1.5 -2.39,-2.69 0,-0.79 0.54,-1.75 1.89,-1.75 1.09,0 2.69,0.89 2.69,2.89 0,2.6 -2.94,3.28 -4.63,3.28 -2.89,0 -4.64,-2.64 -5.23,-3.78 -1.25,3.28 -3.94,3.78 -5.38,3.78 -5.19,0 -8.03,-6.42 -8.03,-7.67 0,-0.5 0.5,-0.5 0.61,-0.5 0.39,0 0.55,0.11 0.64,0.55 1.69,5.28 4.98,6.53 6.67,6.53 0.96,0 2.69,-0.44 2.69,-3.33 0,-1.54 -0.84,-4.89 -2.69,-11.86 -0.79,-3.09 -2.53,-5.18 -4.73,-5.18 -0.3,0 -1.44,0 -2.49,0.65 1.25,0.24 2.35,1.28 2.35,2.69 0,1.34 -1.1,1.73 -1.85,1.73 -1.5,0 -2.75,-1.29 -2.75,-2.89 0,-2.28 2.5,-3.28 4.69,-3.28 3.3,0 5.08,3.49 5.24,3.78 0.59,-1.84 2.39,-3.78 5.37,-3.78 5.14,0 7.98,6.42 7.98,7.67 0,0.5 -0.45,0.5 -0.6,0.5 -0.44,0 -0.55,-0.2 -0.65,-0.54 -1.64,-5.33 -5.03,-6.53 -6.62,-6.53 -1.95,0 -2.75,1.59 -2.75,3.29 0,1.1 0.3,2.19 0.86,4.38 z"
           id="path953"
           inkscape:connector-curvature="0"
           style="fill:#000000;stroke-width:0" /><path
           d="m 556.66,418.65 v 0.37 0.39 l -0.01,0.39 -0.01,0.41 -0.04,0.84 -0.06,0.88 -0.09,0.92 -0.1,0.95 -0.14,0.97 -0.16,1.01 -0.2,1.02 -0.23,1.03 -0.26,1.05 -0.31,1.06 -0.35,1.07 -0.39,1.07 -0.21,0.53 -0.23,0.53 -0.24,0.53 -0.25,0.53 c -2.98,6.12 -7.26,9.36 -7.76,9.36 -0.3,0 -0.5,-0.19 -0.5,-0.49 0,-0.15 0,-0.25 0.93,-1.15 4.9,-4.92 7.74,-12.85 7.74,-23.27 0,-8.51 -1.84,-17.28 -8.03,-23.56 -0.64,-0.59 -0.64,-0.7 -0.64,-0.84 0,-0.3 0.2,-0.5 0.5,-0.5 0.5,0 4.97,3.39 7.92,9.71 2.53,5.47 3.12,11 3.12,15.19 z"
           id="path955"
           inkscape:connector-curvature="0"
           style="fill:#000000;stroke-width:0" /></g>    </g>
    <g
       id="g1025"
       transform="matrix(1.5,0,0,1.5,-16.212664,-72.207387)"
       style="fill:#008000;fill-opacity:1">
      <g
         word-spacing="normal"
         letter-spacing="normal"
         font-size-adjust="none"
         font-stretch="normal"
         font-weight="normal"
         font-variant="normal"
         font-style="normal"
         stroke-miterlimit="10.433"
         xml:space="preserve"
         transform="matrix(0.45801639,0,0,-0.45801639,-80.152869,418.82196)"
         id="g1023"
         style="font-style:normal;font-variant:normal;font-weight:normal;font-stretch:normal;letter-spacing:normal;word-spacing:normal;text-anchor:start;fill:#008000;fill-opacity:1;fill-rule:evenodd;stroke:#000000;stroke-linecap:butt;stroke-linejoin:miter;stroke-miterlimit:10.43299961;stroke-dasharray:none;stroke-dashoffset:0;stroke-opacity:1"><path
           id="path1015"
           d="m 501.21,434.45 0.23,0.4 0.24,0.4 0.24,0.38 0.24,0.37 0.13,0.18 0.13,0.17 0.14,0.17 0.13,0.16 0.14,0.16 0.15,0.16 0.15,0.15 0.16,0.14 0.16,0.14 0.17,0.13 0.17,0.13 0.18,0.12 0.19,0.11 0.19,0.11 0.2,0.1 0.21,0.09 0.22,0.09 0.23,0.08 0.24,0.07 0.25,0.06 0.25,0.05 0.27,0.05 0.28,0.04 0.29,0.02 c 0.45,0.05 0.95,0.05 0.95,1 0,0.19 -0.2,0.55 -0.61,0.55 -1.19,0 -2.58,-0.16 -3.83,-0.16 -1.7,0 -3.55,0.16 -5.19,0.16 -0.29,0 -0.93,0 -0.93,-0.95 0,-0.55 0.43,-0.6 0.73,-0.6 1.2,-0.04 2.95,-0.45 2.95,-1.93 0,-0.55 -0.25,-0.96 -0.65,-1.66 l -13.46,-23.45 -1.84,24.7 c -0.05,1 -0.14,2.3 3.48,2.34 0.86,0 1.36,0 1.36,1 0,0.5 -0.56,0.55 -0.75,0.55 -2,0 -4.09,-0.16 -6.07,-0.16 -1.16,0 -4.1,0.16 -5.24,0.16 -0.3,0 -0.95,0 -0.95,-1 0,-0.55 0.5,-0.55 1.2,-0.55 2.19,0 2.53,-0.29 2.64,-1.25 l 0.3,-3.82 -12.61,-21.97 -1.89,25.25 c 0,0.59 0,1.75 3.78,1.79 0.5,0 1.05,0 1.05,1 0,0.55 -0.6,0.55 -0.69,0.55 -2,0 -4.09,-0.16 -6.13,-0.16 -1.75,0 -3.54,0.16 -5.23,0.16 -0.25,0 -0.91,0 -0.91,-0.95 0,-0.6 0.46,-0.6 1.25,-0.6 2.5,0 2.55,-0.45 2.64,-1.84 l 2.25,-30.44 c 0.05,-0.9 0.1,-1.29 0.8,-1.29 0.6,0 0.74,0.29 1.19,1.04 l 14.66,25.41 1.84,-25.16 c 0.09,-1.04 0.19,-1.29 0.8,-1.29 0.64,0 0.93,0.5 1.18,0.93 z"
           inkscape:connector-curvature="0"
           style="fill:#008000;fill-opacity:1;stroke-width:0" /><path
           id="path1017"
           d="m 526,394.25 v 0.02 0.03 0.01 0.02 0.01 l -0.01,0.02 v 0.01 l -0.01,0.02 -0.01,0.02 -0.01,0.02 -0.01,0.02 -0.02,0.03 -0.01,0.02 -0.02,0.03 -0.02,0.03 -0.03,0.03 -0.02,0.03 -0.03,0.04 -0.02,0.02 -0.01,0.02 -0.02,0.02 -0.02,0.02 -0.02,0.02 -0.02,0.03 -0.02,0.02 -0.02,0.02 -0.02,0.03 -0.03,0.02 -0.02,0.03 -0.03,0.03 -0.03,0.03 -0.02,0.03 -0.03,0.03 -0.03,0.03 -0.03,0.03 -0.03,0.03 -0.04,0.04 -0.03,0.03 -0.04,0.04 -0.03,0.03 -0.04,0.04 -0.04,0.04 c -6.22,6.28 -7.81,15.69 -7.81,23.31 0,8.67 1.89,17.35 8.01,23.56 0.64,0.61 0.64,0.71 0.64,0.86 0,0.35 -0.18,0.49 -0.48,0.49 -0.5,0 -4.99,-3.38 -7.92,-9.7 -2.55,-5.49 -3.14,-11.02 -3.14,-15.21 0,-3.89 0.54,-9.9 3.28,-15.54 2.98,-6.13 7.28,-9.36 7.78,-9.36 0.3,0 0.48,0.14 0.48,0.5 z"
           inkscape:connector-curvature="0"
           style="fill:#008000;fill-opacity:1;stroke-width:0" /><path
           id="path1019"
           d="m 545.48,421.25 0.03,0.13 0.03,0.15 0.04,0.16 0.05,0.18 0.05,0.19 0.06,0.21 0.07,0.22 0.07,0.22 0.08,0.23 0.09,0.24 0.09,0.25 0.11,0.24 0.11,0.25 0.12,0.25 0.13,0.25 0.13,0.25 0.15,0.24 0.16,0.24 0.16,0.23 0.18,0.22 0.19,0.22 0.2,0.2 0.21,0.19 0.22,0.18 0.23,0.16 0.24,0.14 0.13,0.07 0.13,0.06 0.13,0.05 0.14,0.05 0.14,0.05 0.14,0.04 0.15,0.03 0.15,0.03 0.15,0.02 0.15,0.02 0.16,0.01 h 0.16 c 0.25,0 1.44,0 2.49,-0.64 -1.39,-0.25 -2.39,-1.5 -2.39,-2.69 0,-0.79 0.54,-1.75 1.89,-1.75 1.09,0 2.69,0.89 2.69,2.89 0,2.6 -2.94,3.28 -4.63,3.28 -2.89,0 -4.64,-2.64 -5.23,-3.78 -1.25,3.28 -3.94,3.78 -5.38,3.78 -5.19,0 -8.03,-6.42 -8.03,-7.67 0,-0.5 0.5,-0.5 0.61,-0.5 0.39,0 0.55,0.11 0.64,0.55 1.69,5.28 4.98,6.53 6.67,6.53 0.96,0 2.69,-0.44 2.69,-3.33 0,-1.54 -0.84,-4.89 -2.69,-11.86 -0.79,-3.09 -2.53,-5.18 -4.73,-5.18 -0.3,0 -1.44,0 -2.49,0.65 1.25,0.24 2.35,1.28 2.35,2.69 0,1.34 -1.1,1.73 -1.85,1.73 -1.5,0 -2.75,-1.29 -2.75,-2.89 0,-2.28 2.5,-3.28 4.69,-3.28 3.3,0 5.08,3.49 5.24,3.78 0.59,-1.84 2.39,-3.78 5.37,-3.78 5.14,0 7.98,6.42 7.98,7.67 0,0.5 -0.45,0.5 -0.6,0.5 -0.44,0 -0.55,-0.2 -0.65,-0.54 -1.64,-5.33 -5.03,-6.53 -6.62,-6.53 -1.95,0 -2.75,1.59 -2.75,3.29 0,1.1 0.3,2.19 0.86,4.38 z"
           inkscape:connector-curvature="0"
           style="fill:#008000;fill-opacity:1;stroke-width:0" /><path
           id="path1021"
           d="m 571.66,418.65 v 0.37 0.39 l -0.01,0.39 -0.01,0.41 -0.04,0.84 -0.06,0.88 -0.09,0.92 -0.1,0.95 -0.14,0.97 -0.16,1.01 -0.2,1.02 -0.23,1.03 -0.26,1.05 -0.31,1.06 -0.35,1.07 -0.39,1.07 -0.21,0.53 -0.23,0.53 -0.24,0.53 -0.25,0.53 c -2.98,6.12 -7.26,9.36 -7.76,9.36 -0.3,0 -0.5,-0.19 -0.5,-0.49 0,-0.15 0,-0.25 0.93,-1.15 4.9,-4.92 7.74,-12.85 7.74,-23.27 0,-8.51 -1.84,-17.28 -8.03,-23.56 -0.64,-0.59 -0.64,-0.7 -0.64,-0.84 0,-0.3 0.2,-0.5 0.5,-0.5 0.5,0 4.97,3.39 7.92,9.71 2.53,5.47 3.12,11 3.12,15.19 z"
           inkscape:connector-curvature="0"
           style="fill:#008000;fill-opacity:1;stroke-width:0" /></g>    </g>
    <path
       id="path900-8"
       d="m 598.46966,505.04837 0.0206,-0.0893 0.0206,-0.10305 0.0275,-0.10993 0.0343,-0.12366 0.0344,-0.13053 0.0412,-0.14428 0.0481,-0.15114 0.0481,-0.15115 0.055,-0.15802 0.0618,-0.16488 0.0618,-0.17176 0.0756,-0.16488 0.0756,-0.17176 0.0824,-0.17176 0.0893,-0.17175 0.0893,-0.17176 0.10305,-0.16488 0.10992,-0.16489 0.10993,-0.15802 0.12366,-0.15114 0.13054,-0.15115 0.1374,-0.1374 0.14428,-0.13054 0.15114,-0.12366 0.15802,-0.10992 0.16488,-0.0962 0.0893,-0.0481 0.0893,-0.0412 0.0893,-0.0344 0.0962,-0.0344 0.0962,-0.0343 0.0962,-0.0275 0.10306,-0.0206 0.10305,-0.0206 0.10306,-0.0137 0.10305,-0.0137 0.10992,-0.007 h 0.10993 c 0.17175,0 0.98931,0 1.71069,0.4397 -0.95497,0.17175 -1.64199,1.03053 -1.64199,1.84809 0,0.54275 0.37099,1.2023 1.29848,1.2023 0.74885,0 1.84809,-0.61146 1.84809,-1.9855 2e-5,-1.78627 -2.01983,-2.25345 -3.1809,-2.25345 -1.9855,0 -3.1878,1.81375 -3.59314,2.59696 -0.85878,-2.25344 -2.70688,-2.59696 -3.69619,-2.59696 -3.56566,0 -5.51681,4.4107 -5.51681,5.26948 0,0.34352 0.34351,0.34352 0.41908,0.34352 0.26794,0 0.37787,-0.0756 0.4397,-0.37787 1.16107,-3.62749 3.42138,-4.48627 4.58245,-4.48627 0.65955,0 1.8481,0.30229 1.8481,2.28779 0,1.05802 -0.5771,3.35955 -1.8481,8.14811 -0.54275,2.12291 -1.73817,3.55879 -3.24962,3.55879 -0.20611,0 -0.98932,0 -1.71069,-0.44656 0.85878,-0.16489 1.6145,-0.8794 1.6145,-1.8481 0,-0.92061 -0.75572,-1.18855 -1.27099,-1.18855 -1.03054,0 -1.88932,0.88626 -1.88932,1.9855 0,1.56641 1.71756,2.25344 3.22215,2.25344 2.26718,0 3.49008,-2.39772 3.60001,-2.59695 0.40534,1.26412 1.64198,2.59695 3.68932,2.59695 3.5313,0 5.48245,-4.4107 5.48245,-5.26948 0,-0.34351 -0.30916,-0.34351 -0.41221,-0.34351 -0.30229,0 -0.37786,0.1374 -0.44657,0.37099 -1.12672,3.66184 -3.45573,4.48627 -4.5481,4.48627 -1.3397,0 -1.88932,-1.09237 -1.88932,-2.26031 0,-0.75573 0.20611,-1.50458 0.59084,-3.00917 z"
       inkscape:connector-curvature="0"
       style="font-style:normal;font-variant:normal;font-weight:normal;font-stretch:normal;letter-spacing:normal;word-spacing:normal;text-anchor:start;fill:#000000;fill-opacity:1;fill-rule:evenodd;stroke:#000000;stroke-width:0;stroke-linecap:butt;stroke-linejoin:miter;stroke-miterlimit:10.43299961;stroke-dasharray:none;stroke-dashoffset:0;stroke-opacity:1" />
    <path
       style="fill:none;fill-rule:evenodd;stroke:#000000;stroke-width:3.74999976;stroke-linecap:butt;stroke-linejoin:miter;stroke-miterlimit:4;stroke-dasharray:none;stroke-opacity:1"
       d="m 195.98214,483.34435 c 68.95987,-71.79449 67.74158,-255.964 93.5289,-256.33666 27.118,-0.15784 26.5165,210.39583 117.43023,257.11538"
       id="path1091"
       inkscape:connector-curvature="0"
       sodipodi:nodetypes="ccc" />
    <path
       style="fill:none;fill-rule:evenodd;stroke:#008000;stroke-width:3.74999976;stroke-linecap:butt;stroke-linejoin:miter;stroke-miterlimit:4;stroke-dasharray:3.74999965, 3.74999965;stroke-dashoffset:0;stroke-opacity:1"
       d="M 211.89005,189.5715 469.35198,482.78378"
       id="path1405"
       inkscape:connector-curvature="0"
       sodipodi:nodetypes="cc" />
  </g>
</svg>
