<?xml version="1.0" encoding="UTF-8" standalone="no"?>
<!-- Created with Inkscape (http://www.inkscape.org/) -->

<svg
   xmlns:dc="http://purl.org/dc/elements/1.1/"
   xmlns:cc="http://creativecommons.org/ns#"
   xmlns:rdf="http://www.w3.org/1999/02/22-rdf-syntax-ns#"
   xmlns:svg="http://www.w3.org/2000/svg"
   xmlns="http://www.w3.org/2000/svg"
   xmlns:sodipodi="http://sodipodi.sourceforge.net/DTD/sodipodi-0.dtd"
   xmlns:inkscape="http://www.inkscape.org/namespaces/inkscape"
   sodipodi:docname="icon_gears.svg"
   inkscape:version="0.92.3 (2405546, 2018-03-11)"
   version="1.1"
   id="svg4205"
   viewBox="0 0 222.7539 216.32035"
   height="61.050411mm"
   width="62.8661mm">
  <sodipodi:namedview
     inkscape:window-maximized="1"
     inkscape:window-y="27"
     inkscape:window-x="57"
     inkscape:window-height="1025"
     inkscape:window-width="1863"
     showgrid="false"
     inkscape:current-layer="layer1"
     inkscape:document-units="px"
     inkscape:cy="113.49883"
     inkscape:cx="162.9265"
     inkscape:zoom="2.6967554"
     inkscape:pageshadow="2"
     inkscape:pageopacity="0.0"
     borderopacity="1.0"
     bordercolor="#666666"
     pagecolor="#ffffff"
     id="base"
     fit-margin-top="0"
     fit-margin-left="0"
     fit-margin-right="0"
     fit-margin-bottom="0" />
  <defs
     id="defs4207">
    <inkscape:path-effect
       effect="skeletal"
       id="path-effect5247"
       is_visible="true"
       pattern="M 3.64,10 10,10 13.64,0 20,0 23.64,10 30,10 33.64,0 40,0 43.64,10 50,10 53.64,0 60,0 63.64,10 70,10 73.64,0 80,0 83.64,10"
       copytype="repeated_stretched"
       prop_scale="1"
       scale_y_rel="false"
       spacing="0"
       normal_offset="0"
       tang_offset="0"
       prop_units="false"
       vertical_pattern="false"
       fuse_tolerance="0" />
    <inkscape:path-effect
       effect="skeletal"
       id="path-effect5213"
       is_visible="true"
       pattern="M 0,0 3.64,10 10,10 13.64,0 20,0 23.64,10 30,10 33.64,0 40,0 43.64,10 50,10 53.64,0 60,0 63.64,10 70,10 73.64,0 80,0 83.64,10 90,10 93.64,0"
       copytype="repeated_stretched"
       prop_scale="1"
       scale_y_rel="false"
       spacing="0"
       normal_offset="0"
       tang_offset="0"
       prop_units="false"
       vertical_pattern="false"
       fuse_tolerance="0" />
    <inkscape:path-effect
       effect="skeletal"
       id="path-effect5195"
       is_visible="true"
       pattern="M 0,0 1,0"
       copytype="single_stretched"
       prop_scale="1"
       scale_y_rel="false"
       spacing="0"
       normal_offset="0"
       tang_offset="0"
       prop_units="false"
       vertical_pattern="false"
       fuse_tolerance="0" />
    <inkscape:path-effect
       effect="skeletal"
       id="path-effect5247-6"
       is_visible="true"
       pattern="m 154.09824,96.534596 6.36,0 3.64,-10 6.36,0 3.64,10 6.36,0 3.64,-10 6.36,0 3.64,10 6.36,0 3.64,-10 6.36,0 3.64,10 6.36,0 3.64,-10 6.36,0 3.64,10"
       copytype="repeated_stretched"
       prop_scale="1"
       scale_y_rel="false"
       spacing="0"
       normal_offset="0"
       tang_offset="0"
       prop_units="false"
       vertical_pattern="false"
       fuse_tolerance="0" />
  </defs>
  <metadata
     id="metadata4210">
    <rdf:RDF>
      <cc:Work
         rdf:about="">
        <dc:format>image/svg+xml</dc:format>
        <dc:type
           rdf:resource="http://purl.org/dc/dcmitype/StillImage" />
        <dc:title />
      </cc:Work>
    </rdf:RDF>
  </metadata>
  <g
     id="layer1"
     inkscape:groupmode="layer"
     inkscape:label="Layer 1"
     transform="translate(-51.583073,-156.93381)">
    <circle
       r="0"
       cy="233.03123"
       cx="127.6805"
       id="path4755-5"
       style="fill:none;fill-opacity:0.78431373;fill-rule:nonzero;stroke:#000000;stroke-width:3;stroke-linecap:round;stroke-linejoin:round;stroke-miterlimit:4;stroke-dasharray:none;stroke-dashoffset:0;stroke-opacity:1" />
    <g
       id="g5280"
       style="stroke-width:1.5;stroke-miterlimit:4;stroke-dasharray:none">
      <circle
         style="fill:none;fill-opacity:1;fill-rule:nonzero;stroke:#000000;stroke-width:1.5;stroke-linecap:round;stroke-linejoin:round;stroke-miterlimit:4;stroke-dasharray:none;stroke-dashoffset:0;stroke-opacity:1"
         id="path4753"
         cx="127.6805"
         cy="233.03123"
         r="53.076157" />
      <path
         inkscape:original-d="M 198.44871,233.03123 A 70.768211,70.768211 0 0 1 127.6805,303.79945 70.768211,70.768211 0 0 1 56.912285,233.03123 70.768211,70.768211 0 0 1 127.6805,162.26302 70.768211,70.768211 0 0 1 198.44871,233.03123 Z"
         inkscape:path-effect="#path-effect5247"
         style="fill:none;fill-opacity:1;fill-rule:nonzero;stroke:#000000;stroke-width:1.5;stroke-linecap:round;stroke-linejoin:round;stroke-miterlimit:4;stroke-dasharray:none;stroke-dashoffset:0;stroke-opacity:1"
         d="m 193.44871,233.03123 c 0.0191,2.16376 -0.0926,4.31953 -0.32739,6.4595 3.14969,1.59949 6.22457,3.40195 9.21522,5.39505 -0.44602,2.47035 -1.02164,4.90938 -1.71907,7.30927 -3.56104,0.45431 -7.10756,0.70754 -10.62723,0.7691 -0.72655,2.03627 -1.55937,4.03998 -2.49065,6.00332 2.45206,2.53274 4.79757,5.22061 7.02712,8.05129 -1.18391,2.19609 -2.47286,4.33627 -3.85904,6.41275 -3.54695,-0.65584 -7.03154,-1.48101 -10.44145,-2.46612 -1.31766,1.75424 -2.71703,3.45134 -4.19028,5.08351 1.6243,3.15894 3.1103,6.42519 4.4486,9.78641 -1.76726,1.76727 -3.615,3.45407 -5.53539,5.05259 -3.22581,-1.63584 -6.34142,-3.40927 -9.33453,-5.31091 -1.75424,1.31766 -3.5656,2.55362 -5.42629,3.70007 0.66639,3.47811 1.16274,7.01569 1.47966,10.60041 -2.19608,1.18391 -4.44806,2.26278 -6.74812,3.2288 -2.59762,-2.48569 -5.03723,-5.07725 -7.30649,-7.76528 -2.03627,0.72655 -4.10509,1.34682 -6.19866,1.85301 -0.42168,3.49023 -1.04512,6.9921 -1.87972,10.49328 -2.47035,0.44601 -4.97203,0.76241 -7.49722,0.94139 -1.66238,-3.20537 -3.11892,-6.48487 -4.35728,-9.82911 -10e-6,-4e-5 -2e-5,-9e-5 -3e-5,-1.4e-4 -2.16377,0.0191 -4.31954,-0.0926 -6.45951,-0.32737 -1.59949,3.1497 -3.40195,6.22457 -5.39506,9.21522 -2.47035,-0.44602 -4.90938,-1.02165 -7.30927,-1.71907 -0.4543,-3.56104 -0.70753,-7.10756 -0.76909,-10.62724 -2.03627,-0.72655 -4.03998,-1.55937 -6.00332,-2.49066 -2.532739,2.45207 -5.220614,4.79758 -8.051296,7.02713 -2.196082,-1.18392 -4.336268,-2.47287 -6.412745,-3.85905 0.655841,-3.54695 1.481016,-7.03153 2.46613,-10.44144 -1.754237,-1.31767 -3.451344,-2.71704 -5.083508,-4.19029 -3.158946,1.62429 -6.425194,3.11029 -9.786416,4.4486 -1.767268,-1.76727 -3.454067,-3.61501 -5.052585,-5.5354 1.63584,-3.22581 3.409279,-6.34142 5.310922,-9.33453 -1.317663,-1.75424 -2.553625,-3.5656 -3.700071,-5.42629 -3.47811,0.66638 -7.015689,1.16273 -10.600411,1.47965 -1.18391,-2.19608 -2.26278,-4.44806 -3.228796,-6.74812 2.485696,-2.59762 5.077256,-5.03723 7.765286,-7.30648 -0.726547,-2.03627 -1.346819,-4.1051 -1.853004,-6.19866 -3.490234,-0.42168 -6.992103,-1.04513 -10.493283,-1.87973 -0.44601,-2.47036 -0.762408,-4.97204 -0.941379,-7.49722 3.205341,-1.66237 6.484807,-3.11889 9.829005,-4.35724 9e-5,-2e-5 1.79e-4,-4e-5 2.68e-4,-6e-5 -0.01916,-2.16377 0.09258,-4.31954 0.327351,-6.45952 -3.149694,-1.59949 -6.224563,-3.40196 -9.215211,-5.39506 0.446017,-2.47035 1.021645,-4.90938 1.719072,-7.30927 3.561043,-0.4543 7.107563,-0.70753 10.627237,-0.76909 0.726552,-2.03626 1.559377,-4.03997 2.490662,-6.00331 -2.452064,-2.53274 -4.797568,-5.22062 -7.027116,-8.0513 1.183916,-2.19609 2.472871,-4.33627 3.859052,-6.41275 3.546943,0.65585 7.031532,1.48102 10.44144,2.46614 1.317667,-1.75424 2.717036,-3.45134 4.190291,-5.08351 -1.624291,-3.15894 -3.110287,-6.42519 -4.448592,-9.78642 1.767272,-1.76726 3.615011,-3.45406 5.535403,-5.05258 3.225802,1.63584 6.341417,3.40929 9.33452,5.31093 1.754239,-1.31766 3.565608,-2.55362 5.426291,-3.70007 -0.666376,-3.47811 -1.162722,-7.01569 -1.479641,-10.60041 2.196084,-1.18391 4.448064,-2.26278 6.748124,-3.22879 2.59762,2.4857 5.03722,5.07726 7.30648,7.76529 2.03627,-0.72654 4.10509,-1.34682 6.19866,-1.853 0.42168,-3.49023 1.04513,-6.9921 1.87974,-10.49328 2.47035,-0.44601 4.97203,-0.76241 7.49722,-0.94137 1.66234,3.2053 3.11884,6.48472 4.35718,9.82888 4e-5,1.1e-4 8e-5,2.3e-4 1.3e-4,3.4e-4 2.16375,-0.0191 4.31952,0.0926 6.45949,0.32741 1.5995,-3.14969 3.40197,-6.22456 5.39507,-9.21521 2.47035,0.44602 4.90938,1.02165 7.30928,1.71908 0.45429,3.56104 0.70752,7.10756 0.76907,10.62724 2.03627,0.72655 4.03998,1.55938 6.00331,2.49066 2.53275,-2.45206 5.22063,-4.79756 8.05131,-7.02711 2.19608,1.18392 4.33627,2.47288 6.41274,3.85906 -0.65584,3.54694 -1.48102,7.03153 -2.46614,10.44144 1.75423,1.31767 3.45134,2.71704 5.0835,4.19029 3.15895,-1.62429 6.4252,-3.11028 9.78642,-4.44858 1.76727,1.76727 3.45407,3.61501 5.05258,5.5354 -1.63584,3.2258 -3.40929,6.34142 -5.31093,9.33452 1.31766,1.75424 2.55362,3.56561 3.70006,5.42629 3.47811,-0.66637 7.01569,-1.16271 10.60041,-1.47963 1.18391,2.19608 2.26278,4.44806 3.22879,6.74813 -2.4857,2.59761 -5.07726,5.03721 -7.76529,7.30647 0.72654,2.03627 1.34681,4.10509 1.85299,6.19866 3.49023,0.42168 6.9921,1.04514 10.49328,1.87975 0.44601,2.47035 0.7624,4.97203 0.94137,7.49722 -3.20541,1.66239 -6.48496,3.11893 -9.82923,4.3573"
         id="path4753-2"
         inkscape:connector-curvature="0" />
    </g>
    <g
       id="g5276"
       transform="translate(-34.817949,-23.886733)"
       style="stroke-width:1.5;stroke-miterlimit:4;stroke-dasharray:none">
      <circle
         style="fill:none;fill-opacity:1;fill-rule:nonzero;stroke:#000000;stroke-width:1.5;stroke-linecap:round;stroke-linejoin:round;stroke-miterlimit:4;stroke-dasharray:none;stroke-dashoffset:0;stroke-opacity:1"
         id="path4753-1"
         cx="254.8593"
         cy="342.84528"
         r="33.155365" />
      <path
         inkscape:original-d="m 303.97836,342.84527 a 49.119062,49.119062 0 0 1 -49.11906,49.11907 49.119062,49.119062 0 0 1 -49.11907,-49.11907 49.119062,49.119062 0 0 1 49.11907,-49.11906 49.119062,49.119062 0 0 1 49.11906,49.11906 z"
         inkscape:path-effect="#path-effect5247-6"
         style="fill:none;fill-opacity:1;fill-rule:nonzero;stroke:#000000;stroke-width:1.5;stroke-linecap:round;stroke-linejoin:round;stroke-miterlimit:4;stroke-dasharray:none;stroke-dashoffset:0;stroke-opacity:1"
         d="m 298.97836,342.84527 c 0.0318,2.4047 -0.18388,4.7987 -0.62207,7.15689 2.98814,1.96193 5.83182,4.24497 8.50556,6.81425 -0.84487,2.8554 -1.92852,5.62993 -3.22587,8.29847 -3.70884,0.0765 -7.36082,-0.15931 -10.92107,-0.68196 -1.27693,2.08911 -2.72248,4.08857 -4.31154,5.97326 1.63247,3.21615 3.03582,6.61704 4.1846,10.1678 -2.09844,2.09843 -4.35671,4.03703 -6.74971,5.79067 -3.33531,-1.66874 -6.47739,-3.56514 -9.39135,-5.66374 -2.08912,1.27694 -4.2679,2.38525 -6.51122,3.29984 -0.0462,3.57895 -0.40613,7.20628 -1.1053,10.84709 -2.85541,0.84486 -5.7917,1.45092 -8.78375,1.79307 -2.07034,-3.09096 -3.81108,-6.32494 -5.18734,-9.67646 -1e-5,-5e-5 -2e-5,-9e-5 -3e-5,-1.4e-4 -2.40471,0.0319 -4.79871,-0.18385 -7.15691,-0.62205 -1.96193,2.98814 -4.24497,5.83181 -6.81425,8.50555 -2.85541,-0.84486 -5.62993,-1.92853 -8.29847,-3.22588 -0.0765,-3.70884 0.15932,-7.36082 0.68197,-10.92106 -2.08911,-1.27694 -4.08857,-2.72249 -5.97326,-4.31155 -3.21615,1.63247 -6.61704,3.03582 -10.1678,4.18459 -2.09843,-2.09844 -4.03702,-4.35671 -5.79067,-6.74972 1.66875,-3.33531 3.56515,-6.47738 5.66375,-9.39134 -1.27693,-2.08912 -2.38524,-4.2679 -3.29983,-6.51122 -3.57895,-0.0462 -7.20627,-0.40614 -10.84708,-1.10532 -0.84486,-2.85541 -1.45092,-5.79169 -1.79307,-8.78375 3.09094,-2.07031 6.32489,-3.81104 9.67638,-5.18729 7e-5,-3e-5 1.3e-4,-5e-5 2e-4,-8e-5 -0.0318,-2.4047 0.18389,-4.7987 0.62209,-7.15689 -2.98814,-1.96193 -5.83181,-4.24498 -8.50554,-6.81427 0.84486,-2.8554 1.92853,-5.62992 3.22588,-8.29846 3.70884,-0.0765 7.36082,0.15932 10.92106,0.68198 1.27694,-2.08911 2.7225,-4.08857 4.31156,-5.97326 -1.63246,-3.21615 -3.03581,-6.61704 -4.18458,-10.1678 2.09844,-2.09843 4.35672,-4.03702 6.74972,-5.79066 3.33531,1.66875 6.47738,3.56515 9.39134,5.66376 2.08912,-1.27693 4.2679,-2.38524 6.51122,-3.29982 0.0462,-3.57896 0.40615,-7.20628 1.10533,-10.84709 2.85541,-0.84485 5.7917,-1.45091 8.78375,-1.79305 2.07029,3.0909 3.811,6.32481 5.18724,9.67627 4e-5,10e-5 9e-5,2.1e-4 1.3e-4,3.1e-4 2.4047,-0.0318 4.7987,0.18389 7.15689,0.62209 1.96193,-2.98813 4.24498,-5.8318 6.81427,-8.50553 2.8554,0.84487 5.62993,1.92854 8.29846,3.2259 0.0765,3.70884 -0.15933,7.36082 -0.68199,10.92106 2.08911,1.27694 4.08856,2.7225 5.97325,4.31156 3.21615,-1.63246 6.61705,-3.0358 10.16781,-4.18457 2.09843,2.09844 4.03701,4.35672 5.79065,6.74973 -1.66875,3.3353 -3.56516,6.47737 -5.66376,9.39133 1.27692,2.08912 2.38523,4.2679 3.29981,6.51123 3.57896,0.0462 7.20628,0.40615 10.84709,1.10534 0.84485,2.85541 1.4509,5.79169 1.79304,8.78375 -3.091,2.07035 -6.32502,3.8111 -9.67659,5.18735"
         id="path4753-2-8"
         inkscape:connector-curvature="0" />
    </g>
  </g>
</svg>
